<svg width="400" height="400" xmlns="http://www.w3.org/2000/svg">
 <style>.st0{fill:#2b77ea}.st1{fill:#fff}</style>

 <g>
  <title>background</title>
  <rect x="-1" y="-1" width="402" height="402" id="canvas_background" fill="none"/>
 </g>
 <g>
  <title>Layer 1</title>
  <path class="st0" d="m0,200l0,-200l400,0l0,400l-400,0" id="svg_1"/>
  <path class="st1" d="m87.553571,365l37,0l0,-74l66.446429,0l0,-33l-66.446429,0l0,-41l103.6,0l-0.153571,-33l-140.446429,0.4l0,180.6zm233.4,-181c10.2,2.4 18,7 25,14.3c3.7,4 9.2,11 9.6,12.8c0,0.6 -17.3,12.3 -27.8,18.8c-0.4,0.3 -2,-1.4 -3.6,-4c-5.2,-7.4 -10.5,-10.6 -18.8,-11.2c-12,-0.8 -20,5.5 -20,16c0,3.2 0.6,5 1.8,7.6c2.7,5.5 7.7,8.8 23.2,15.6c28.6,12.3 41,20.4 48.5,32c8.5,13 10.4,33.4 4.7,48.7c-6.4,16.7 -22,28 -44.3,31.7c-7,1.2 -23,1 -30.5,-0.3c-16,-3 -31.3,-11 -40.7,-21.3c-3.7,-4 -10.8,-14.7 -10.4,-15.4l3.8,-2.4l15,-8.7l11.3,-6.6l2.6,3.5c3.3,5.2 10.7,12.2 15,14.6c13,6.7 30.4,5.8 39,-2c3.7,-3.4 5.3,-7 5.3,-12c0,-4.6 -0.7,-6.7 -3,-10.2c-3.2,-4.4 -9.6,-8 -27.6,-16c-20.7,-8.8 -29.5,-14.4 -37.7,-23c-4.7,-5.2 -9,-13.3 -11,-20c-1.5,-5.8 -2,-20 -0.6,-25.7c4.3,-20 19.4,-34 41,-38c7,-1.4 23.5,-0.8 30.4,1l-0.2,0.2z" id="svg_2"/>
 </g>
</svg>
