<svg xmlns="http://www.w3.org/2000/svg" xmlns:xlink="http://www.w3.org/1999/xlink" width="1241" height="254" viewBox="0 0 1241 254">
    <defs>
        <path id="a" d="M.627.044h48.08v101.552H.628z"/>
        <path id="c" d="M0 .394h235.187V196H0z"/>
    </defs>
    <g fill="none" fill-rule="evenodd">
        <path fill="#000" d="M1110.485 89.478v.015c.012 0 .018.02.03.03l-.03-.045zM766.437 175.163h-5.899v-38.201s2.551-1.009 4.946-1.009c8.07 0 13.417 5.556 13.417 18.912 0 12.509-4.938 20.298-12.464 20.298m.408-50.94c-3.092 0-6.315.777-6.315.777l.008-36H747v98h18.337C781.815 187 793 173.403 793 154.293c0-19.114-9.074-30.07-26.155-30.07M693.692 89s-2.499 44.075-3.75 60.632c-1.166 15.128-2.222 20.395-3.366 22.505-1.13 2.113-2.846 3.241-5.254 3.749-2.939.644-5.322.196-5.322.196L680.116 189h.769c4.603 0 9.22-1.495 11.905-3.605 4.297-3.366 6.759-8.987 7.953-15.368.908-4.768 1.764-11.957 2.84-26.549.27-3.84 2.792-42.419 2.792-42.419l10.984-.006v86.064H731V89h-37.308zM1140.706 89s-2.524 44.075-3.76 60.632c-1.153 15.128-2.23 20.395-3.367 22.505-1.136 2.113-2.843 3.241-5.257 3.749-2.933.644-5.322.196-5.322.196l4.099 12.918h.77c4.62 0 9.245-1.495 11.938-3.605 4.288-3.366 6.753-8.987 7.959-15.368.876-4.768 1.75-11.957 2.806-26.549.29-3.84 2.783-42.419 2.783-42.419l11.015-.006v86.064H1178V89h-37.294zM585.572 121.976l29.332-58.39-15.573-.293-26.373 57.634V63H559v123.463h13.958v-61.277L602.621 187 618 185.564zM852.516 174.457V88h-13.851v86.457h-19.986V88H805v98.337h44.335V207H863v-32.543zM988.405 63l-13.39 72.25c-2.145-12.83-3.658-22.065-5.879-33.81-.608-3.147-8.5-38.44-8.5-38.44H946l23.263 92.532s-.47 3.107-1.77 8.964c-1.423 6.391-3.222 11.648-13.977 11.648-1.593 0-2.996-.15-2.996-.15l4.139 12.96s.97.046 4.065.046c5.524 0 10.84-1.82 14.084-5.533 2.704-3.084 4.981-7.25 6.933-15.801C981.393 160.445 1002 63 1002 63h-13.595zM1032.949 176.938c-3.5 0-7.652-1.63-9.505-3.9v-70.605c2.7-2.363 6.044-3.817 8.96-3.817 8.22 0 12.275 7.663 12.275 35.521 0 34.068-4.044 42.801-11.73 42.801M1034.742 87c-4.709 0-10.144 2.712-13.89 6.26l-.701-4.388H1007s2.702 18.316 2.702 21.349l.009 109.779h13.744l-.011-34.488c1.762 1.395 5.336 3.303 9.886 3.303 24.101 0 25.67-33.99 25.67-54.678 0-24.189-3.788-47.137-24.258-47.137M1093.288 177.245c-5.666 0-10.026-4.084-10.026-20.46.006-12.601 3.701-20.728 11.471-20.728 2.938 0 4.697.283 6.894.665v35.789c-1.971 3.047-5.045 4.734-8.339 4.734m21.999-6.83v-58.77c0-15.002-5.14-24.645-20.172-24.645-5.966 0-15.048 2.753-21.376 5.638.396 1.656 3.5 10.002 3.831 11.136 4.148-1.679 10.83-4.532 14.678-4.532 6.88 0 9.379 5.804 9.379 13.54v12.19a47.802 47.802 0 0 0-8.56-.752c-6.994 0-13.783 2.847-17.863 8.725-4.055 5.795-6.204 15.423-6.204 24.684 0 19.049 7.032 31.371 20.559 31.371 4.66 0 11.169-2.956 14.177-7.525.156 1.266.715 5.627.715 5.627H1117s-1.713-11.168-1.713-16.686"/>
        <g transform="translate(1190 87)">
            <mask id="b" fill="#fff">
                <use xlink:href="#a"/>
            </mask>
            <path fill="#000" d="M24.965 89.893c-5.69 0-10.061-4.067-10.061-20.37 0-12.546 3.703-20.637 11.495-20.637 2.946 0 4.717.281 6.902.661V85.18c-1.967 3.034-5.046 4.714-8.336 4.714m22.04-6.8V24.58c0-14.935-5.162-24.536-20.22-24.536-5.965 0-15.074 2.741-21.427 5.613.423 1.65 3.505 9.958 3.854 11.088 4.15-1.672 10.849-4.512 14.693-4.512 6.9 0 9.396 5.777 9.396 13.48V37.85a47.873 47.873 0 0 0-8.574-.75c-7.012 0-13.827 2.836-17.924 8.687C2.78 51.557.627 61.143.627 70.363c0 18.965 7.043 31.233 20.587 31.233 4.675 0 11.189-2.943 14.203-7.492.15 1.26.709 5.602.709 5.602h12.582s-1.702-11.119-1.702-16.613" mask="url(#b)"/>
        </g>
        <path fill="#000" d="M635.316 137.905c0 16.033.92 39.369 11.368 39.369 9.606 0 10.8-17.743 10.8-39.37 0-21.612-1.025-39.343-11.128-39.343-10.763-.011-11.04 23.324-11.04 39.344m36.684 0c0 37.26-10.109 51.095-25.961 51.095C630.195 189 621 178.437 621 138.124 621 97.794 630.452 87 646.833 87 663.197 87 672 100.657 672 137.905M885.32 137.905c0 16.033.937 39.369 11.367 39.369 9.633 0 10.813-17.743 10.813-39.37 0-21.612-1.005-39.343-11.121-39.343-10.788-.011-11.059 23.324-11.059 39.344m36.68 0c0 37.26-10.099 51.095-25.947 51.095C880.199 189 871 178.437 871 138.124 871 97.794 880.488 87 896.853 87 913.229 87 922 100.657 922 137.905M372.282 177.231c-5.66 0-10.047-4.087-10.047-20.437 0-12.61 3.688-20.72 11.498-20.72 2.947 0 4.696.237 6.902.643v35.804c-1.979 3.012-5.042 4.71-8.353 4.71m22.023-6.833V111.63c0-14.97-5.147-24.63-20.186-24.63-5.965 0-15.072 2.766-21.392 5.636.423 1.637 3.49 10.008 3.855 11.126 4.123-1.69 10.823-4.501 14.664-4.501 6.885-.023 9.389 5.801 9.389 13.51v12.214a47.173 47.173 0 0 0-8.568-.757c-7.013 0-13.801 2.826-17.886 8.716-4.038 5.785-6.181 15.416-6.181 24.661 0 19.049 7.015 31.395 20.569 31.395 4.659 0 11.149-2.972 14.187-7.55.167 1.263.72 5.64.72 5.64H396s-1.695-11.188-1.695-16.692"/>
        <path fill="#000" d="M389.485 93.472v.024s.03 0 .03.032l-.03-.056zM303.178 175.173h-6.4v-54.565s2.968-1.102 8.023-1.102c11.69 0 17.642 8.817 17.642 26.2 0 17.375-5.267 29.467-19.265 29.467m2.722-67.51c-5.664 0-9.128 1.138-9.128 1.138l.006-32.974h34.013V64H283v123h22.72c15.382 0 31.28-11.178 31.28-41.09 0-29.184-12.822-38.248-31.1-38.248M447.34 89h-1.95V128.653h-20.769V89H411v98h13.621v-46.464h20.77V187H459V89h-1.975zM500.82 132.988l24.764-44.26L510.748 88l-22.166 44.257V88.285H475v98.355h13.582v-49.863L512.827 187l15.173-.853z"/>
        <path fill="#FFB400" d="M141 35.89V17l-11.687 10.454L120.468 17l-8.86 10.454L100 17v19c6.845-1.425 13.8-2.175 20.805-2.175 6.755 0 13.538.71 20.195 2.065"/>
        <g transform="translate(0 39)">
            <mask id="d" fill="#fff">
                <use xlink:href="#c"/>
            </mask>
            <path fill="#FFB400" d="M120.09 4.84l4.686 4.818-4.686 4.855-4.68-4.855 4.68-4.818zm114.656 86.414l.44-2.585h-6.954c-3.19 0-4.683 1.144-5.147 4.411-.46 3.326-1.16 7.184-2.166 12.715-.947 5.18-3.79 5.564-8.48 5.576 2.159-33.718-17.022-64.49-46.989-79.966-3.37-1.74-6.565-3.084-10.537-4.573l-.302.892c3.543 1.59 7.131 3.358 10.498 5.471 27.663 17.49 41.101 48.449 35.608 78.176-5.246.005-8.383-.063-9.39-5.576-1.011-5.531-1.7-9.389-2.177-12.715-.452-3.267-1.94-4.411-5.13-4.411H177.048l.45 2.585h4.5c.077.5.18 1.06.28 1.67l-4.488-.006.453 2.594h4.455c.088.54.193 1.096.287 1.661h-4.45l.447 2.582h4.424c.75 4.39 1.513 8.806 1.902 10.61.785 3.86 2.323 9.607 13.125 9.97-.002.009-.002.026-.002.032-1.891 5.925-4.519 11.763-8.05 17.361-21.212 33.496-65.892 42.893-99.237 21.43-14.054-9.048-23.676-23.074-27.76-38.64-.014-.066-.022-.129-.05-.183 10.511-.474 12.015-6.138 12.809-9.97.378-1.804 1.143-6.22 1.888-10.601l4.427-.009.452-2.582h-4.453c.105-.565.19-1.122.287-1.661h4.45l.46-2.594h-4.483c.097-.605.188-1.164.273-1.664h4.507l.437-2.585H77.42c-3.187 0-4.683 1.144-5.135 4.411-.475 3.326-1.157 7.184-2.166 12.715-.953 5.167-3.78 5.564-8.465 5.576-1.644-14.286 1.305-29.221 9.846-42.45 15.906-23.494 44.488-31.516 69.28-23.977L120.3 23.59l20.487-21.026C124.56-.929 108.443-.088 93.556 4.244c-14.42 4.477-27.61 12.575-37.263 24.352-20.947 22.765-28.036 59.397-19.306 89.34 8.154 29.976 32.858 55.365 63.532 62.583 14.046 3.59 28.988 3.377 43.054-.227l.21.838c-14.14 3.874-29.266 4.363-43.637.957-31.353-6.812-57.655-31.604-66.62-62.499-7.594-24.446-5.607-52.34 6.347-74.997l-.89-.582c-6.114 9.067-10.726 19.222-13.398 30.176a98.588 98.588 0 0 0-1.874 37.186c-5.263.014-8.428-.043-9.437-5.576-1.013-5.531-1.7-9.389-2.161-12.715-.464-3.267-1.954-4.411-5.144-4.411H0l.452 2.585h4.493c.085.5.173 1.06.281 1.67l-4.484-.006.45 2.594h4.455c.09.54.185 1.096.284 1.661H1.473l.452 2.582h4.441c.745 4.39 1.502 8.806 1.877 10.61.827 3.994 2.411 10.002 14.197 10.002h2.957c.082.363.168.713.259 1.082 8.618 34.72 35.872 63.547 73.58 72.156 49.697 11.377 99.354-18.83 111.128-68.384a96.38 96.38 0 0 0 1.035-4.854h1.36c11.77 0 13.372-6.008 14.188-10.002.384-1.804 1.14-6.22 1.885-10.601l4.436-.009.443-2.582h-4.438c.09-.565.19-1.122.275-1.661h4.459l.458-2.594h-4.496c.108-.605.202-1.164.285-1.664h4.492z" mask="url(#d)"/>
        </g>
    </g>
</svg>
