<svg xmlns="http://www.w3.org/2000/svg" width="116" height="50" viewBox="0 0 116 50">
  <g id="Layer_1" data-name="Layer 1" transform="translate(-3 -4)">
    <g id="Group_84" data-name="Group 84" transform="translate(3 4)">
      <rect id="Rectangle_169" data-name="Rectangle 169" width="116" height="50" fill="#151515"/>
      <g id="tmPRO" transform="translate(17.237 16.276)" style="isolation: isolate">
        <g id="Group_86" data-name="Group 86" transform="translate(0 0.683)" style="isolation: isolate">
          <path id="Path_282" data-name="Path 282" d="M106.426,255.088H100.17v11.731H93.544V255.088H87.28V250.23h19.146Z" transform="translate(-87.28 -250.23)" fill="#fff"/>
          <path id="Path_283" data-name="Path 283" d="M227,250.23v16.589h-6.541v-8.982l-5.451,6.8h-.332l-5.451-6.8v8.982h-6.4V250.23h7.252l4.937,6.564L220,250.23Z" transform="translate(-180.01 -250.23)" fill="#fff"/>
        </g>
        <g id="Group_87" data-name="Group 87" transform="translate(50.962)" style="isolation: isolate">
          <path id="Path_284" data-name="Path 284" d="M349.533,252.051h-3.5v4.092h-.705V246.77h4.355q3.417,0,3.415,2.682a2.2,2.2,0,0,1-1.161,2.032A4.6,4.6,0,0,1,349.533,252.051Zm.235-4.631h-3.732V251.4h3.752a3.181,3.181,0,0,0,1.777-.47,1.661,1.661,0,0,0,.816-1.479Q352.374,247.42,349.767,247.42Z" transform="translate(-345.33 -246.77)" fill="#fff"/>
          <path id="Path_285" data-name="Path 285" d="M400.621,251.567a2.156,2.156,0,0,1,1.452,2.2v2.37h-.705v-2.35q0-1.837-2.567-1.839h-3.689v4.189H394.4V246.77h4.52q3.288,0,3.29,2.461A2.3,2.3,0,0,1,400.621,251.567Zm-1.673-4.147h-3.837v3.857h3.622a3.6,3.6,0,0,0,1.908-.442,1.71,1.71,0,0,0,.871-1.562Q401.505,247.422,398.948,247.42Z" transform="translate(-384.709 -246.77)" fill="#fff"/>
          <path id="Path_286" data-name="Path 286" d="M452.035,255.138a5.828,5.828,0,0,1-7.285.014,4.645,4.645,0,0,1-1.319-3.511,4.421,4.421,0,0,1,1.327-3.428,5.141,5.141,0,0,1,3.63-1.213,5.2,5.2,0,0,1,3.642,1.217,4.407,4.407,0,0,1,1.333,3.428A4.634,4.634,0,0,1,452.035,255.138Zm-.5-6.448a4.458,4.458,0,0,0-3.144-1.045,4.39,4.39,0,0,0-3.132,1.045,3.822,3.822,0,0,0-1.126,2.95,4.043,4.043,0,0,0,1.133,3.022,4.266,4.266,0,0,0,3.124,1.112,4.367,4.367,0,0,0,3.144-1.1,4.051,4.051,0,0,0,1.128-3.035,3.743,3.743,0,0,0-1.134-2.95Z" transform="translate(-424.056 -246.954)" fill="#fff"/>
        </g>
      </g>
    </g>
  </g>
</svg>
