<?xml version="1.0" encoding="UTF-8"?>
<svg width="188" height="38" viewBox="0 0 188 38" version="1.1" xmlns="http://www.w3.org/2000/svg" xmlns:xlink="http://www.w3.org/1999/xlink">
    <!-- Generator: sketchtool 56.3 (101010) - https://sketch.com -->
    <title>726BAF0E-05F3-47A5-AFD1-811831505917</title>
    <desc>Created with sketchtool.</desc>
    <g id="Element-Sheet-" stroke="none" stroke-width="1" fill="none" fill-rule="evenodd">
        <g id="Element-Sheet---Saritasa-Web-2019" transform="translate(-3236.000000, -1089.000000)" fill="#F15924">
            <g id="Graphic-Elements" transform="translate(2733.000000, 427.000000)">
                <g id="Logo" transform="translate(503.000000, 662.000000)">
                    <g id="horizontal-tagline-update-outline" transform="translate(0.376000, 0.187192)">
                        <path d="M18.9746522,0.0265812817 C8.49534407,0.0265812817 0,8.4852316 0,18.9196947 C0,29.3541579 8.49534407,37.8128082 18.9746522,37.8128082 C20.1853722,37.8128082 21.3688322,37.698621 22.5163842,37.4827885 L18.0325842,30.0630544 C12.2696321,29.5860889 7.74090007,24.7812416 7.74090007,18.9196947 C7.74090007,12.7421676 12.7702761,7.73421681 18.9746522,7.73421681 C25.1790282,7.73421681 30.2084043,12.7421676 30.2084043,18.9196947 C30.2084043,24.5972317 25.9590402,29.2835865 20.4547762,30.0055865 L24.6524402,36.9520988 C32.3581843,34.5489264 37.9493043,27.3847096 37.9493043,18.9196947 C37.9493043,8.4852316 29.4539602,0.0265812817 18.9746522,0.0265812817" id="Fill-1"></path>
                        <path d="M49.0886801,37.8128082 C59.5679882,37.8128082 68.0633323,29.3541579 68.0633323,18.9196947 C68.0633323,8.4852316 59.5679882,0.0265812817 49.0886801,0.0265812817 C47.8779601,0.0265812817 46.6946881,0.140768475 45.5471361,0.356600989 L50.0309361,7.77652223 C55.7937002,8.25330056 60.3224322,13.0581479 60.3224322,18.9196947 C60.3224322,25.0974091 55.2928682,30.1051727 49.0886801,30.1051727 C42.8843041,30.1051727 37.854928,25.0974091 37.854928,18.9196947 C37.854928,13.2421577 42.1044801,8.55580303 47.6085561,7.83399021 L43.4108921,0.887477841 C35.70496,3.29046308 30.114028,10.4548671 30.114028,18.9196947 C30.114028,29.3541579 38.609372,37.8128082 49.0886801,37.8128082" id="Fill-2"></path>
                        <path d="M81.1257577,16.4128176 C82.3908097,17.2641673 84.0658898,18.149586 85.6385099,18.149586 C86.4591299,18.149586 87.9302299,17.9461082 87.9302299,16.8220195 C87.9302299,14.5068275 80.2367056,15.0173004 80.2367056,10.2854581 C80.2367056,7.25519215 83.1087818,5.89318233 85.7759379,5.89318233 C87.7929899,5.89318233 89.947282,6.77803945 91.5543061,7.9021281 L89.81023,10.7613004 C88.681854,10.1488079 87.0750179,9.19562561 85.7417219,9.19562561 C85.1254578,9.19562561 84.2027538,9.33171427 84.2027538,10.1147389 C84.2027538,12.4978817 91.8962781,11.6128374 91.8962781,16.7875762 C91.8962781,20.0222559 88.54499,21.4177731 85.7073179,21.4177731 C83.4503778,21.4177731 81.3650817,20.5331032 79.4839536,19.3410638 L81.1257577,16.4128176" id="Fill-3"></path>
                        <path d="M105.483039,17.4683939 L105.483039,13.7241773 C105.516503,11.8172512 104.319319,9.84237447 101.516239,9.84237447 C98.7122189,9.84237447 97.6863029,11.8172512 97.6863029,13.7241773 C97.6863029,15.6301674 98.9519189,17.4683939 101.755563,17.4683939 L105.483039,17.4683939 Z M101.447995,21.1455964 C96.6605749,21.1455964 93.7202548,17.809084 93.7202548,13.6212219 C93.7202548,9.43354699 96.7635989,6.16535976 101.550267,6.16535976 C106.337875,6.16535976 109.483491,9.43354699 109.449087,13.6212219 L109.449087,21.1455964 L101.447995,21.1455964 L101.447995,21.1455964 Z" id="Fill-4"></path>
                        <path d="M112.150457,12.736552 C112.150457,9.16136965 114.885857,6.16535976 119.330929,6.16535976 L119.330929,9.67240414 C117.416525,9.67240414 116.048825,10.8296258 116.048825,13.2131431 L116.048825,21.1455964 L112.150457,21.1455964 L112.150457,12.736552" id="Fill-5"></path>
                        <path d="M122.54517,2.82903443 C122.54517,1.73938914 123.434787,0.85453203 124.493979,0.85453203 C125.588515,0.85453203 126.477943,1.73938914 126.477943,2.82903443 C126.477943,3.9188669 125.588515,4.76890628 124.493979,4.76890628 C123.434787,4.76890628 122.54517,3.9188669 122.54517,2.82903443 Z M122.47749,21.1455963 L126.409322,21.1455963 L126.409322,6.16535967 L122.47749,6.16535967 L122.47749,21.1455963 Z" id="Fill-6"></path>
                        <path d="M129.89672,1.50109361 L133.828552,1.50109361 L133.828552,6.16535965 L138.410864,6.16535965 L138.410864,9.60464047 L133.863708,9.60464047 L133.863708,14.0978129 C133.863708,16.4815174 135.162224,17.6729952 137.077192,17.6729952 L137.077192,21.1455962 C132.598468,21.1455962 129.89672,18.1495863 129.89672,14.5751528 L129.89672,1.50109361" id="Fill-7"></path>
                        <path d="M151.290369,17.4683939 L151.290369,13.7241773 C151.324961,11.8172512 150.127965,9.84237447 147.324321,9.84237447 C144.519737,9.84237447 143.494761,11.8172512 143.494761,13.7241773 C143.494761,15.6301674 144.759813,17.4683939 147.563081,17.4683939 L151.290369,17.4683939 Z M147.255514,21.1455964 C142.469221,21.1455964 139.527773,17.809084 139.527773,13.6212219 C139.527773,9.43354699 142.571117,6.16535976 147.358914,6.16535976 C152.145206,6.16535976 155.29101,9.43354699 155.256982,13.6212219 L155.256982,21.1455964 L147.255514,21.1455964 L147.255514,21.1455964 Z" id="Fill-8"></path>
                        <path d="M158.768071,16.4128176 C160.033123,17.2641673 161.708391,18.149586 163.280635,18.149586 C164.101443,18.149586 165.572355,17.9461082 165.572355,16.8220195 C165.572355,14.5068275 157.879019,15.0173004 157.879019,10.2854581 C157.879019,7.25519215 160.750531,5.89318233 163.418439,5.89318233 C165.434739,5.89318233 167.589783,6.77803945 169.196619,7.9021281 L167.453295,10.7613004 C166.324355,10.1488079 164.717519,9.19562561 163.384035,9.19562561 C162.767771,9.19562561 161.845067,9.33171427 161.845067,10.1147389 C161.845067,12.4978817 169.538591,11.6128374 169.538591,16.7875762 C169.538591,20.0222559 166.187867,21.4177731 163.349443,21.4177731 C161.092879,21.4177731 159.007019,20.5331032 157.126267,19.3410638 L158.768071,16.4128176" id="Fill-9"></path>
                        <path d="M183.125346,17.4683939 L183.125346,13.7241773 C183.15881,11.8172512 181.962566,9.84237447 179.158922,9.84237447 C176.354714,9.84237447 175.32955,11.8172512 175.32955,13.7241773 C175.32955,15.6301674 176.594414,17.4683939 179.39787,17.4683939 L183.125346,17.4683939 Z M179.090115,21.1455964 C174.303634,21.1455964 171.362562,17.809084 171.362562,13.6212219 C171.362562,9.43354699 174.405906,6.16535976 179.192575,6.16535976 C183.980371,6.16535976 187.125611,9.43354699 187.091395,13.6212219 L187.091395,21.1455964 L179.090115,21.1455964 L179.090115,21.1455964 Z" id="Fill-10"></path>
                        <polyline id="Fill-11" points="82.2389074 32.3791811 81.1178633 32.3791811 81.1178633 28.04325 79.6819193 28.04325 79.6819193 27.1140283 83.6748514 27.1140283 83.6748514 28.04325 82.2389074 28.04325 82.2389074 32.3791811"></polyline>
                        <polyline id="Fill-12" points="88.2287767 32.3791811 85.1835527 32.3791811 85.1835527 27.1140283 88.2287767 27.1140283 88.2287767 28.0288362 86.3045967 28.0288362 86.3045967 29.1847475 88.0949207 29.1847475 88.0949207 30.0995554 86.3045967 30.0995554 86.3045967 31.4572599 88.2287767 31.4572599 88.2287767 32.3791811"></polyline>
                        <path d="M92.1993371,27.9676244 C91.7774651,27.9676244 91.4507211,28.1254273 91.2192931,28.4412204 C90.9878651,28.7568264 90.8720571,29.196915 90.8720571,29.7609249 C90.8720571,30.9349939 91.3144211,31.5220284 92.1993371,31.5220284 C92.5708251,31.5220284 93.0205211,31.4297427 93.5484251,31.2447969 L93.5484251,32.1811319 C93.1145211,32.3612107 92.6298571,32.4512501 92.0944331,32.4512501 C91.3253251,32.4512501 90.7370731,32.2189447 90.3294891,31.7543338 C89.9220931,31.289723 89.7183011,30.6229446 89.7183011,29.7538116 C89.7183011,29.2064618 89.8183171,28.7268756 90.0185371,28.3150529 C90.2185691,27.9034175 90.5062091,27.5876244 90.8810811,27.368048 C91.2559531,27.1482844 91.6954971,27.0385899 92.1993371,27.0385899 C92.7129531,27.0385899 93.2288251,27.1621367 93.7473291,27.4094175 L93.3856171,28.3169249 C93.1880291,28.2233288 92.9891251,28.141713 92.7889051,28.0720776 C92.5888731,28.0024421 92.3922251,27.9676244 92.1993371,27.9676244" id="Fill-13"></path>
                        <polyline id="Fill-14" points="99.6424448 32.3791811 98.5247848 32.3791811 98.5247848 30.1068559 96.4308407 30.1068559 96.4308407 32.3791811 95.3096086 32.3791811 95.3096086 27.1140283 96.4308407 27.1140283 96.4308407 29.1776342 98.5247848 29.1776342 98.5247848 27.1140283 99.6424448 27.1140283 99.6424448 32.3791811"></polyline>
                        <path d="M106.310989,32.3791811 L104.885949,32.3791811 L102.585769,28.3961071 L102.553245,28.3961071 C102.598929,29.0995751 102.621865,29.6014372 102.621865,29.9015062 L102.621865,32.3791811 L101.620013,32.3791811 L101.620013,27.1140283 L103.034149,27.1140283 L105.330945,31.0574175 L105.356137,31.0574175 C105.320041,30.3732303 105.301993,29.8895259 105.301993,29.606117 L105.301993,27.1140283 L106.310989,27.1140283 L106.310989,32.3791811" id="Fill-15"></path>
                        <path d="M109.237962,29.7394003 C109.237962,30.3277452 109.35001,30.7706417 109.574294,31.0682772 C109.798578,31.3660998 110.133594,31.5149176 110.579718,31.5149176 C111.474222,31.5149176 111.921474,30.9230161 111.921474,29.7394003 C111.921474,28.553351 111.476666,27.9603264 110.58705,27.9603264 C110.140926,27.9603264 109.804406,28.1098929 109.577866,28.4088387 C109.351138,28.7077845 109.237962,29.1512427 109.237962,29.7394003 Z M113.097038,29.7394004 C113.097038,30.6109669 112.879898,31.2807403 112.445994,31.7489078 C112.011902,32.2170753 111.389998,32.4512526 110.579718,32.4512526 C109.769438,32.4512526 109.147534,32.2170753 108.713442,31.7489078 C108.279538,31.2807403 108.062398,30.6085334 108.062398,29.7322871 C108.062398,28.8560407 108.280102,28.1866417 108.715322,27.7244644 C109.150354,27.262287 109.774326,27.0312919 110.58705,27.0312919 C111.399398,27.0312919 112.021114,27.2641589 112.451446,27.7298929 C112.881778,28.1958141 113.097038,28.8655875 113.097038,29.7394004 L113.097038,29.7394004 Z" id="Fill-16"></path>
                        <polyline id="Fill-17" points="114.848631 32.3791811 114.848631 27.1140283 115.969675 27.1140283 115.969675 31.4572599 118.114567 31.4572599 118.114567 32.3791811 114.848631 32.3791811"></polyline>
                        <path d="M120.545409,29.7394003 C120.545409,30.3277452 120.657457,30.7706417 120.881741,31.0682772 C121.106025,31.3660998 121.441041,31.5149176 121.887165,31.5149176 C122.781669,31.5149176 123.228921,30.9230161 123.228921,29.7394003 C123.228921,28.553351 122.784113,27.9603264 121.894497,27.9603264 C121.448373,27.9603264 121.111853,28.1098929 120.885313,28.4088387 C120.658585,28.7077845 120.545409,29.1512427 120.545409,29.7394003 Z M124.404485,29.7394004 C124.404485,30.6109669 124.187345,31.2807403 123.753441,31.7489078 C123.319349,32.2170753 122.697445,32.4512526 121.887165,32.4512526 C121.076885,32.4512526 120.454981,32.2170753 120.020889,31.7489078 C119.586985,31.2807403 119.369845,30.6085334 119.369845,29.7322871 C119.369845,28.8560407 119.587549,28.1866417 120.022769,27.7244644 C120.457801,27.262287 121.081773,27.0312919 121.894497,27.0312919 C122.706845,27.0312919 123.328561,27.2641589 123.758893,27.7298929 C124.189225,28.1958141 124.404485,28.8655875 124.404485,29.7394004 L124.404485,29.7394004 Z" id="Fill-18"></path>
                        <path d="M128.172951,29.4224816 L130.270655,29.4224816 L130.270655,32.1523043 C129.930563,32.2627477 129.610587,32.340058 129.310351,32.3846097 C129.010115,32.4289743 128.703299,32.4512501 128.389903,32.4512501 C127.591655,32.4512501 126.982347,32.2176344 126.561603,31.7507772 C126.140671,31.2837328 125.930487,30.6133978 125.930487,29.7393978 C125.930487,28.8895456 126.174511,28.2268855 126.662747,27.7516047 C127.151171,27.2761367 127.827971,27.0385899 128.693711,27.0385899 C129.236091,27.0385899 129.759483,27.1465997 130.263323,27.3626194 L129.890895,28.255713 C129.505119,28.0636539 129.103551,27.9676244 128.686379,27.9676244 C128.201715,27.9676244 127.813495,28.1297327 127.521907,28.4537623 C127.229943,28.7779791 127.084243,29.2135751 127.084243,29.7609249 C127.084243,30.3324225 127.201743,30.7687673 127.436931,31.0701466 C127.671931,31.3713388 128.013715,31.5220284 128.462283,31.5220284 C128.695967,31.5220284 128.933599,31.4980678 129.174615,31.4499595 L129.174615,30.3517033 L128.172951,30.3517033 L128.172951,29.4224816" id="Fill-19"></path>
                        <polyline id="Fill-20" points="133.951123 29.2820874 135.054307 27.1140283 136.262207 27.1140283 134.507979 30.3299889 134.507979 32.3791811 133.394079 32.3791811 133.394079 30.3659298 131.639851 27.1140283 132.855083 27.1140283 133.951123 29.2820874"></polyline>
                        <path d="M143.45472,30.9170235 C143.45472,31.3923043 143.282888,31.7668757 142.939224,32.0405506 C142.59556,32.3144127 142.117664,32.4512501 141.50516,32.4512501 C140.940972,32.4512501 140.441832,32.3454866 140.007928,32.1343339 L140.007928,31.0971023 C140.364752,31.2554668 140.66668,31.3672205 140.9139,31.431989 C141.160932,31.4967575 141.387096,31.5293289 141.592016,31.5293289 C141.83792,31.5293289 142.026672,31.4823437 142.158084,31.3887476 C142.289308,31.2951516 142.355108,31.1560678 142.355108,30.971122 C142.355108,30.8679791 142.326156,30.7760678 142.26844,30.6955752 C142.210536,30.6150826 142.125372,30.5377722 142.013324,30.4632698 C141.901276,30.3887673 141.672856,30.2700875 141.328064,30.106856 C141.004704,29.9556047 140.76256,29.8103436 140.601068,29.6710727 C140.439388,29.5318018 140.31042,29.3696934 140.213976,29.1847476 C140.117532,28.9999889 140.069216,28.7839692 140.069216,28.5365012 C140.069216,28.0709544 140.227888,27.7048066 140.544856,27.438245 C140.862012,27.1716835 141.30024,27.0385899 141.85954,27.0385899 C142.134584,27.0385899 142.396656,27.0707869 142.64632,27.1357426 C142.895796,27.200511 143.15674,27.2918608 143.42934,27.4094175 L143.067628,28.2772401 C142.785628,28.162117 142.55232,28.0816244 142.367704,28.0361367 C142.183276,27.9904618 142.001856,27.9676244 141.823444,27.9676244 C141.61138,27.9676244 141.448572,28.0168559 141.335208,28.1151318 C141.221844,28.213782 141.165256,28.3421958 141.165256,28.5005603 C141.165256,28.5990234 141.188192,28.6847574 141.233876,28.7581367 C141.279748,28.8313288 141.352692,28.9020874 141.452708,28.9705998 C141.552724,29.0389249 141.789604,29.1620973 142.163536,29.3395554 C142.6576,29.5750431 142.996564,29.8109052 143.179676,30.0473289 C143.362976,30.2837525 143.45472,30.5737131 143.45472,30.9170235" id="Fill-21"></path>
                        <path d="M146.049675,29.7394003 C146.049675,30.3277452 146.161911,30.7706417 146.386007,31.0682772 C146.610291,31.3660998 146.945495,31.5149176 147.391619,31.5149176 C148.286122,31.5149176 148.733374,30.9230161 148.733374,29.7394003 C148.733374,28.553351 148.288566,27.9603264 147.398763,27.9603264 C146.952639,27.9603264 146.616307,28.1098929 146.389767,28.4088387 C146.163039,28.7077845 146.049675,29.1512427 146.049675,29.7394003 Z M149.90875,29.7394004 C149.90875,30.6109669 149.691798,31.2807403 149.257706,31.7489078 C148.823802,32.2170753 148.201711,32.4512526 147.391619,32.4512526 C146.581339,32.4512526 145.959247,32.2170753 145.525343,31.7489078 C145.091251,31.2807403 144.874299,30.6085334 144.874299,29.7322871 C144.874299,28.8560407 145.091815,28.1866417 145.527035,27.7244644 C145.962255,27.262287 146.586227,27.0312919 147.398763,27.0312919 C148.211299,27.0312919 148.832826,27.2641589 149.263346,27.7298929 C149.693678,28.1958141 149.90875,28.8655875 149.90875,29.7394004 L149.90875,29.7394004 Z" id="Fill-22"></path>
                        <polyline id="Fill-23" points="151.661105 32.3791811 151.661105 27.1140283 152.782149 27.1140283 152.782149 31.4572599 154.927041 31.4572599 154.927041 32.3791811 151.661105 32.3791811"></polyline>
                        <path d="M160.725148,27.1140283 L160.725148,30.5209247 C160.725148,30.9099099 160.637728,31.2507867 160.462888,31.5435552 C160.288048,31.8365109 160.035564,32.0611414 159.705248,32.2170724 C159.374932,32.3731907 158.984268,32.4512498 158.533444,32.4512498 C157.853448,32.4512498 157.325356,32.2777227 156.949168,31.9308557 C156.573168,31.5838015 156.385168,31.1090823 156.385168,30.5065109 L156.385168,27.1140283 L157.50264,27.1140283 L157.50264,30.3372892 C157.50264,30.7429345 157.584608,31.0407572 157.748544,31.2303828 C157.91248,31.4200084 158.183764,31.5149148 158.562396,31.5149148 C158.928808,31.5149148 159.19464,31.4194468 159.359892,31.2285109 C159.524956,31.0375749 159.607676,30.7382547 159.607676,30.3299887 L159.607676,27.1140283 L160.725148,27.1140283" id="Fill-24"></path>
                        <polyline id="Fill-25" points="164.767149 32.3791811 163.646105 32.3791811 163.646105 28.04325 162.210161 28.04325 162.210161 27.1140283 166.203093 27.1140283 166.203093 28.04325 164.767149 28.04325 164.767149 32.3791811"></polyline>
                        <polygon id="Fill-26" points="167.711605 32.3791811 168.832838 32.3791811 168.832838 27.1140283 167.711605 27.1140283"></polygon>
                        <path d="M171.767893,29.7394003 C171.767893,30.3277452 171.879941,30.7706417 172.104225,31.0682772 C172.328509,31.3660998 172.663525,31.5149176 173.109649,31.5149176 C174.004153,31.5149176 174.451405,30.9230161 174.451405,29.7394003 C174.451405,28.553351 174.006597,27.9603264 173.116981,27.9603264 C172.670669,27.9603264 172.334337,28.1098929 172.107797,28.4088387 C171.881069,28.7077845 171.767893,29.1512427 171.767893,29.7394003 Z M175.626969,29.7394004 C175.626969,30.6109669 175.409829,31.2807403 174.975925,31.7489078 C174.541833,32.2170753 173.919929,32.4512526 173.109649,32.4512526 C172.299369,32.4512526 171.677465,32.2170753 171.243373,31.7489078 C170.809469,31.2807403 170.592329,30.6085334 170.592329,29.7322871 C170.592329,28.8560407 170.810033,28.1866417 171.245065,27.7244644 C171.680285,27.262287 172.304257,27.0312919 173.116981,27.0312919 C173.929329,27.0312919 174.550857,27.2641589 174.981377,27.7298929 C175.411709,28.1958141 175.626969,28.8655875 175.626969,29.7394004 L175.626969,29.7394004 Z" id="Fill-27"></path>
                        <path d="M182.0701,32.3791811 L180.64506,32.3791811 L178.34488,28.3961071 L178.312356,28.3961071 C178.35804,29.0995751 178.380976,29.6014372 178.380976,29.9015062 L178.380976,32.3791811 L177.379125,32.3791811 L177.379125,27.1140283 L178.79326,27.1140283 L181.090056,31.0574175 L181.115248,31.0574175 C181.079152,30.3732303 181.061104,29.8895259 181.061104,29.606117 L181.061104,27.1140283 L182.0701,27.1140283 L182.0701,32.3791811" id="Fill-28"></path>
                        <path d="M187.253453,30.9170235 C187.253453,31.3923043 187.081621,31.7668757 186.738145,32.0405506 C186.394481,32.3144127 185.916585,32.4512501 185.304081,32.4512501 C184.739893,32.4512501 184.240753,32.3454866 183.806661,32.1343339 L183.806661,31.0971023 C184.163485,31.2554668 184.465601,31.3672205 184.712633,31.431989 C184.959853,31.4967575 185.185829,31.5293289 185.390937,31.5293289 C185.636841,31.5293289 185.825405,31.4823437 185.956817,31.3887476 C186.088229,31.2951516 186.154029,31.1560678 186.154029,30.971122 C186.154029,30.8679791 186.125077,30.7760678 186.067173,30.6955752 C186.009269,30.6150826 185.924293,30.5377722 185.812245,30.4632698 C185.700197,30.3887673 185.471589,30.2700875 185.126797,30.106856 C184.803625,29.9556047 184.561481,29.8103436 184.399801,29.6710727 C184.238309,29.5318018 184.109341,29.3696934 184.012897,29.1847476 C183.916453,28.9999889 183.868137,28.7839692 183.868137,28.5365012 C183.868137,28.0709544 184.026621,27.7048066 184.343777,27.438245 C184.660745,27.1716835 185.098973,27.0385899 185.658461,27.0385899 C185.933317,27.0385899 186.195577,27.0707869 186.445241,27.1357426 C186.694717,27.200511 186.955661,27.2918608 187.228261,27.4094175 L186.866549,28.2772401 C186.584361,28.162117 186.351241,28.0816244 186.166625,28.0361367 C185.982197,27.9904618 185.800777,27.9676244 185.622365,27.9676244 C185.410113,27.9676244 185.247305,28.0168559 185.133941,28.1151318 C185.020577,28.213782 184.964177,28.3421958 184.964177,28.5005603 C184.964177,28.5990234 184.986925,28.6847574 185.032797,28.7581367 C185.078669,28.8313288 185.151613,28.9020874 185.251629,28.9705998 C185.351645,29.0389249 185.588525,29.1620973 185.962269,29.3395554 C186.456521,29.5750431 186.795297,29.8109052 186.978597,30.0473289 C187.161897,30.2837525 187.253453,30.5737131 187.253453,30.9170235" id="Fill-29"></path>
                    </g>
                </g>
            </g>
        </g>
    </g>
</svg>
